# xmcd CD database file
#
# Track frame offsets:
#	150
#	23270
#	46225
#	72155
#
# Disc length: 1268 seconds
#
# Revision: 1
# Processed by: cddbd v1.5PL3 Copyright (c) Steve Scherf et al.
# Submitted via: CDex 1.51
#
DISCID=2404f204
DTITLE=浜崎あゆみ - Voyage
DYEAR=2002
DGENRE=JPop
TTITLE0=Voyage
TTITLE1=HANABI ''electrical Bossa mix''
TTITLE2=independent ''SUGIURUMN MIX''
TTITLE3=Voyage -Instrumental-
EXTD=YEAR: 2002
EXTT0=
EXTT1=
EXTT2=
EXTT3=
PLAYORDER=
